<mxfile host="app.diagrams.net" agent="Mozilla/5.0 (X11; Linux x86_64; rv:138.0) Gecko/20100101 Firefox/138.0" version="27.0.6">
  <diagram name="Page-1" id="rd5WgjaN5qs2F5G4zhtr">
    <mxGraphModel dx="1209" dy="1889" grid="1" gridSize="10" guides="1" tooltips="1" connect="1" arrows="1" fold="1" page="1" pageScale="1" pageWidth="850" pageHeight="1100" math="0" shadow="0">
      <root>
        <mxCell id="0" />
        <mxCell id="1" parent="0" />
        <mxCell id="NcCAokG08UXFf6dfI3CS-1" style="edgeStyle=orthogonalEdgeStyle;rounded=0;orthogonalLoop=1;jettySize=auto;html=1;entryX=0;entryY=0.5;entryDx=0;entryDy=0;endArrow=none;endFill=0;exitX=1;exitY=0.5;exitDx=0;exitDy=0;" edge="1" parent="1" source="NcCAokG08UXFf6dfI3CS-2" target="NcCAokG08UXFf6dfI3CS-6">
          <mxGeometry relative="1" as="geometry">
            <Array as="points">
              <mxPoint x="297" y="416.05" />
              <mxPoint x="360" y="416.05" />
              <mxPoint x="360" y="601.05" />
            </Array>
          </mxGeometry>
        </mxCell>
        <mxCell id="NcCAokG08UXFf6dfI3CS-2" value="Profesional" style="rounded=0;whiteSpace=wrap;html=1;" vertex="1" parent="1">
          <mxGeometry x="137" y="397.05" width="160" height="40" as="geometry" />
        </mxCell>
        <mxCell id="NcCAokG08UXFf6dfI3CS-115" style="edgeStyle=orthogonalEdgeStyle;rounded=0;orthogonalLoop=1;jettySize=auto;html=1;exitX=1;exitY=0.75;exitDx=0;exitDy=0;entryX=0;entryY=0.5;entryDx=0;entryDy=0;endArrow=none;startFill=0;" edge="1" parent="1" source="NcCAokG08UXFf6dfI3CS-3" target="NcCAokG08UXFf6dfI3CS-109">
          <mxGeometry relative="1" as="geometry" />
        </mxCell>
        <mxCell id="NcCAokG08UXFf6dfI3CS-3" value="Persona" style="rounded=0;whiteSpace=wrap;html=1;" vertex="1" parent="1">
          <mxGeometry x="400" y="146" width="160" height="40" as="geometry" />
        </mxCell>
        <mxCell id="NcCAokG08UXFf6dfI3CS-4" style="edgeStyle=orthogonalEdgeStyle;rounded=0;orthogonalLoop=1;jettySize=auto;html=1;endArrow=none;endFill=0;" edge="1" parent="1" source="NcCAokG08UXFf6dfI3CS-57" target="NcCAokG08UXFf6dfI3CS-6">
          <mxGeometry relative="1" as="geometry" />
        </mxCell>
        <mxCell id="NcCAokG08UXFf6dfI3CS-5" value="Paciente" style="rounded=0;whiteSpace=wrap;html=1;" vertex="1" parent="1">
          <mxGeometry x="670" y="406.05" width="160" height="40" as="geometry" />
        </mxCell>
        <mxCell id="NcCAokG08UXFf6dfI3CS-6" value="Turno" style="rounded=0;whiteSpace=wrap;html=1;" vertex="1" parent="1">
          <mxGeometry x="705" y="581.05" width="90" height="40" as="geometry" />
        </mxCell>
        <mxCell id="NcCAokG08UXFf6dfI3CS-7" value="Internación" style="rounded=0;whiteSpace=wrap;html=1;" vertex="1" parent="1">
          <mxGeometry x="427" y="357.05" width="120" height="40" as="geometry" />
        </mxCell>
        <mxCell id="NcCAokG08UXFf6dfI3CS-8" value="Medicación" style="rounded=0;whiteSpace=wrap;html=1;" vertex="1" parent="1">
          <mxGeometry x="426" y="521.05" width="120" height="40" as="geometry" />
        </mxCell>
        <mxCell id="NcCAokG08UXFf6dfI3CS-12" value="" style="group" vertex="1" connectable="0" parent="1">
          <mxGeometry x="560" y="152" width="46" height="10" as="geometry" />
        </mxCell>
        <mxCell id="NcCAokG08UXFf6dfI3CS-13" style="edgeStyle=orthogonalEdgeStyle;rounded=0;orthogonalLoop=1;jettySize=auto;html=1;endArrow=none;endFill=0;" edge="1" parent="NcCAokG08UXFf6dfI3CS-12" source="NcCAokG08UXFf6dfI3CS-14">
          <mxGeometry relative="1" as="geometry">
            <mxPoint y="5" as="targetPoint" />
          </mxGeometry>
        </mxCell>
        <mxCell id="NcCAokG08UXFf6dfI3CS-14" value="" style="ellipse;whiteSpace=wrap;html=1;aspect=fixed;rotation=-180;strokeColor=#000000;fillColor=#000000;" vertex="1" parent="NcCAokG08UXFf6dfI3CS-12">
          <mxGeometry x="36" width="10" height="10" as="geometry" />
        </mxCell>
        <mxCell id="NcCAokG08UXFf6dfI3CS-15" value="" style="group" vertex="1" connectable="0" parent="1">
          <mxGeometry x="354" y="152" width="46" height="10" as="geometry" />
        </mxCell>
        <mxCell id="NcCAokG08UXFf6dfI3CS-16" style="edgeStyle=orthogonalEdgeStyle;rounded=0;orthogonalLoop=1;jettySize=auto;html=1;endArrow=none;endFill=0;" edge="1" parent="NcCAokG08UXFf6dfI3CS-15" source="NcCAokG08UXFf6dfI3CS-17">
          <mxGeometry relative="1" as="geometry">
            <mxPoint x="46" y="5" as="targetPoint" />
          </mxGeometry>
        </mxCell>
        <mxCell id="NcCAokG08UXFf6dfI3CS-17" value="" style="ellipse;whiteSpace=wrap;html=1;aspect=fixed;" vertex="1" parent="NcCAokG08UXFf6dfI3CS-15">
          <mxGeometry width="10" height="10" as="geometry" />
        </mxCell>
        <mxCell id="NcCAokG08UXFf6dfI3CS-18" value="" style="group" vertex="1" connectable="0" parent="1">
          <mxGeometry x="354" y="169" width="46" height="10" as="geometry" />
        </mxCell>
        <mxCell id="NcCAokG08UXFf6dfI3CS-19" style="edgeStyle=orthogonalEdgeStyle;rounded=0;orthogonalLoop=1;jettySize=auto;html=1;endArrow=none;endFill=0;" edge="1" parent="NcCAokG08UXFf6dfI3CS-18" source="NcCAokG08UXFf6dfI3CS-20">
          <mxGeometry relative="1" as="geometry">
            <mxPoint x="46" y="5" as="targetPoint" />
          </mxGeometry>
        </mxCell>
        <mxCell id="NcCAokG08UXFf6dfI3CS-20" value="" style="ellipse;whiteSpace=wrap;html=1;aspect=fixed;" vertex="1" parent="NcCAokG08UXFf6dfI3CS-18">
          <mxGeometry width="10" height="10" as="geometry" />
        </mxCell>
        <mxCell id="NcCAokG08UXFf6dfI3CS-21" value="" style="group" vertex="1" connectable="0" parent="1">
          <mxGeometry x="167" y="359.05" width="10" height="38" as="geometry" />
        </mxCell>
        <mxCell id="NcCAokG08UXFf6dfI3CS-22" style="edgeStyle=orthogonalEdgeStyle;rounded=0;orthogonalLoop=1;jettySize=auto;html=1;endArrow=none;endFill=0;" edge="1" parent="NcCAokG08UXFf6dfI3CS-21">
          <mxGeometry relative="1" as="geometry">
            <mxPoint x="5" y="38" as="targetPoint" />
            <mxPoint x="5" y="10" as="sourcePoint" />
          </mxGeometry>
        </mxCell>
        <mxCell id="NcCAokG08UXFf6dfI3CS-23" value="" style="ellipse;whiteSpace=wrap;html=1;aspect=fixed;rotation=90;container=0;" vertex="1" parent="NcCAokG08UXFf6dfI3CS-21">
          <mxGeometry width="10" height="10" as="geometry" />
        </mxCell>
        <mxCell id="NcCAokG08UXFf6dfI3CS-27" style="edgeStyle=orthogonalEdgeStyle;rounded=0;orthogonalLoop=1;jettySize=auto;html=1;endArrow=none;endFill=0;" edge="1" parent="1">
          <mxGeometry relative="1" as="geometry">
            <mxPoint x="148" y="397.05" as="targetPoint" />
            <mxPoint x="148" y="369.05" as="sourcePoint" />
          </mxGeometry>
        </mxCell>
        <mxCell id="NcCAokG08UXFf6dfI3CS-28" value="" style="ellipse;whiteSpace=wrap;html=1;aspect=fixed;rotation=90;container=0;labelBackgroundColor=none;fillColor=#000000;" vertex="1" parent="1">
          <mxGeometry x="143" y="359.05" width="10" height="10" as="geometry" />
        </mxCell>
        <mxCell id="NcCAokG08UXFf6dfI3CS-29" value="&lt;font style=&quot;font-size: 10px;&quot;&gt;apellido&lt;/font&gt;" style="text;html=1;align=center;verticalAlign=middle;resizable=0;points=[];autosize=1;strokeColor=none;fillColor=none;" vertex="1" parent="1">
          <mxGeometry x="297" y="140" width="60" height="30" as="geometry" />
        </mxCell>
        <mxCell id="NcCAokG08UXFf6dfI3CS-30" value="&lt;font style=&quot;font-size: 10px;&quot;&gt;nombre&lt;/font&gt;" style="text;html=1;align=center;verticalAlign=middle;resizable=0;points=[];autosize=1;strokeColor=none;fillColor=none;" vertex="1" parent="1">
          <mxGeometry x="297" y="156" width="60" height="30" as="geometry" />
        </mxCell>
        <mxCell id="NcCAokG08UXFf6dfI3CS-32" value="&lt;font style=&quot;font-size: 10px;&quot;&gt;dni&lt;br&gt;&lt;/font&gt;" style="text;html=1;align=center;verticalAlign=middle;resizable=0;points=[];autosize=1;strokeColor=none;fillColor=none;" vertex="1" parent="1">
          <mxGeometry x="598" y="140" width="40" height="30" as="geometry" />
        </mxCell>
        <mxCell id="NcCAokG08UXFf6dfI3CS-33" value="" style="group;rotation=90;" vertex="1" connectable="0" parent="1">
          <mxGeometry x="560" y="511.05" width="10" height="38" as="geometry" />
        </mxCell>
        <mxCell id="NcCAokG08UXFf6dfI3CS-34" style="edgeStyle=orthogonalEdgeStyle;rounded=0;orthogonalLoop=1;jettySize=auto;html=1;endArrow=none;endFill=0;" edge="1" parent="NcCAokG08UXFf6dfI3CS-33">
          <mxGeometry relative="1" as="geometry">
            <mxPoint x="-14" y="19" as="targetPoint" />
            <mxPoint x="14" y="19" as="sourcePoint" />
          </mxGeometry>
        </mxCell>
        <mxCell id="NcCAokG08UXFf6dfI3CS-35" value="" style="ellipse;whiteSpace=wrap;html=1;aspect=fixed;rotation=180;container=0;labelBackgroundColor=none;fillColor=#000000;" vertex="1" parent="NcCAokG08UXFf6dfI3CS-33">
          <mxGeometry x="14" y="14" width="10" height="10" as="geometry" />
        </mxCell>
        <mxCell id="NcCAokG08UXFf6dfI3CS-36" value="&lt;font style=&quot;font-size: 10px;&quot;&gt;nombre&lt;/font&gt;" style="text;html=1;align=center;verticalAlign=middle;resizable=0;points=[];autosize=1;strokeColor=none;fillColor=none;" vertex="1" parent="1">
          <mxGeometry x="577" y="513.05" width="60" height="30" as="geometry" />
        </mxCell>
        <mxCell id="NcCAokG08UXFf6dfI3CS-37" value="&lt;font style=&quot;font-size: 9px;&quot;&gt;int_IDmed&lt;/font&gt;" style="rhombus;whiteSpace=wrap;html=1;" vertex="1" parent="1">
          <mxGeometry x="456" y="441.05" width="60" height="40" as="geometry" />
        </mxCell>
        <mxCell id="NcCAokG08UXFf6dfI3CS-38" value="" style="group;rotation=90;" vertex="1" connectable="0" parent="1">
          <mxGeometry x="530" y="442.05" width="10" height="38" as="geometry" />
        </mxCell>
        <mxCell id="NcCAokG08UXFf6dfI3CS-39" style="edgeStyle=orthogonalEdgeStyle;rounded=0;orthogonalLoop=1;jettySize=auto;html=1;endArrow=none;endFill=0;" edge="1" parent="NcCAokG08UXFf6dfI3CS-38">
          <mxGeometry relative="1" as="geometry">
            <mxPoint x="-14" y="19" as="targetPoint" />
            <mxPoint x="14" y="19" as="sourcePoint" />
          </mxGeometry>
        </mxCell>
        <mxCell id="NcCAokG08UXFf6dfI3CS-40" value="" style="ellipse;whiteSpace=wrap;html=1;aspect=fixed;rotation=180;container=0;" vertex="1" parent="NcCAokG08UXFf6dfI3CS-38">
          <mxGeometry x="14" y="14" width="10" height="10" as="geometry" />
        </mxCell>
        <mxCell id="NcCAokG08UXFf6dfI3CS-41" value="&lt;font style=&quot;font-size: 10px;&quot;&gt;dosis&lt;/font&gt;" style="text;html=1;align=center;verticalAlign=middle;resizable=0;points=[];autosize=1;strokeColor=none;fillColor=none;" vertex="1" parent="1">
          <mxGeometry x="546" y="445.05" width="50" height="30" as="geometry" />
        </mxCell>
        <mxCell id="NcCAokG08UXFf6dfI3CS-42" value="&lt;font style=&quot;font-size: 10px;&quot;&gt;(0,N)&lt;/font&gt;" style="text;html=1;align=center;verticalAlign=middle;resizable=0;points=[];autosize=1;strokeColor=none;fillColor=none;" vertex="1" parent="1">
          <mxGeometry x="446" y="393.05" width="50" height="30" as="geometry" />
        </mxCell>
        <mxCell id="NcCAokG08UXFf6dfI3CS-43" value="&lt;font style=&quot;font-size: 10px;&quot;&gt;(0,N)&lt;/font&gt;" style="text;html=1;align=center;verticalAlign=middle;resizable=0;points=[];autosize=1;strokeColor=none;fillColor=none;" vertex="1" parent="1">
          <mxGeometry x="445" y="494.05" width="50" height="30" as="geometry" />
        </mxCell>
        <mxCell id="NcCAokG08UXFf6dfI3CS-44" value="&lt;font style=&quot;font-size: 10px;&quot;&gt;(1,1)&lt;/font&gt;" style="text;html=1;align=center;verticalAlign=middle;resizable=0;points=[];autosize=1;strokeColor=none;fillColor=none;" vertex="1" parent="1">
          <mxGeometry x="394" y="353.05" width="40" height="30" as="geometry" />
        </mxCell>
        <mxCell id="NcCAokG08UXFf6dfI3CS-45" value="&lt;font style=&quot;font-size: 10px;&quot;&gt;matricula&lt;/font&gt;" style="text;html=1;align=center;verticalAlign=middle;resizable=0;points=[];autosize=1;strokeColor=none;fillColor=none;rotation=-55;" vertex="1" parent="1">
          <mxGeometry x="123" y="313.05" width="70" height="30" as="geometry" />
        </mxCell>
        <mxCell id="NcCAokG08UXFf6dfI3CS-46" value="&lt;font style=&quot;font-size: 10px;&quot;&gt;email&lt;/font&gt;" style="text;html=1;align=center;verticalAlign=middle;resizable=0;points=[];autosize=1;strokeColor=none;fillColor=none;rotation=-55;" vertex="1" parent="1">
          <mxGeometry x="152" y="321.05" width="50" height="30" as="geometry" />
        </mxCell>
        <mxCell id="NcCAokG08UXFf6dfI3CS-48" style="edgeStyle=orthogonalEdgeStyle;rounded=0;orthogonalLoop=1;jettySize=auto;html=1;entryX=0.888;entryY=-0.011;entryDx=0;entryDy=0;entryPerimeter=0;endArrow=none;endFill=0;" edge="1" parent="1" source="NcCAokG08UXFf6dfI3CS-7" target="NcCAokG08UXFf6dfI3CS-2">
          <mxGeometry relative="1" as="geometry">
            <Array as="points">
              <mxPoint x="279" y="376" />
            </Array>
          </mxGeometry>
        </mxCell>
        <mxCell id="NcCAokG08UXFf6dfI3CS-49" value="&lt;font style=&quot;font-size: 9px;&quot;&gt;prof_int&lt;/font&gt;" style="rhombus;whiteSpace=wrap;html=1;" vertex="1" parent="1">
          <mxGeometry x="330" y="356.05" width="60" height="40" as="geometry" />
        </mxCell>
        <mxCell id="NcCAokG08UXFf6dfI3CS-50" value="&lt;font style=&quot;font-size: 10px;&quot;&gt;(0,N)&lt;/font&gt;" style="text;html=1;align=center;verticalAlign=middle;resizable=0;points=[];autosize=1;strokeColor=none;fillColor=none;" vertex="1" parent="1">
          <mxGeometry x="279.5" y="349.05" width="50" height="30" as="geometry" />
        </mxCell>
        <mxCell id="NcCAokG08UXFf6dfI3CS-51" value="&lt;font style=&quot;font-size: 10px;&quot;&gt;(0,N)&lt;/font&gt;" style="text;html=1;align=center;verticalAlign=middle;resizable=0;points=[];autosize=1;strokeColor=none;fillColor=none;" vertex="1" parent="1">
          <mxGeometry x="290" y="391.05" width="50" height="30" as="geometry" />
        </mxCell>
        <mxCell id="NcCAokG08UXFf6dfI3CS-55" value="&lt;font style=&quot;font-size: 8px;&quot;&gt;profesional_turno&lt;/font&gt;" style="rhombus;whiteSpace=wrap;html=1;" vertex="1" parent="1">
          <mxGeometry x="506" y="581.05" width="90" height="40" as="geometry" />
        </mxCell>
        <mxCell id="NcCAokG08UXFf6dfI3CS-56" value="" style="edgeStyle=orthogonalEdgeStyle;rounded=0;orthogonalLoop=1;jettySize=auto;html=1;endArrow=none;endFill=0;" edge="1" parent="1" source="NcCAokG08UXFf6dfI3CS-5" target="NcCAokG08UXFf6dfI3CS-57">
          <mxGeometry relative="1" as="geometry">
            <mxPoint x="750" y="446.05" as="sourcePoint" />
            <mxPoint x="750" y="596.05" as="targetPoint" />
          </mxGeometry>
        </mxCell>
        <mxCell id="NcCAokG08UXFf6dfI3CS-57" value="&lt;font style=&quot;font-size: 9px;&quot;&gt;tiene&lt;/font&gt;" style="rhombus;whiteSpace=wrap;html=1;" vertex="1" parent="1">
          <mxGeometry x="720" y="486.05" width="60" height="40" as="geometry" />
        </mxCell>
        <mxCell id="NcCAokG08UXFf6dfI3CS-58" value="&lt;font style=&quot;font-size: 10px;&quot;&gt;(0,N)&lt;/font&gt;" style="text;html=1;align=center;verticalAlign=middle;resizable=0;points=[];autosize=1;strokeColor=none;fillColor=none;" vertex="1" parent="1">
          <mxGeometry x="707" y="456.05" width="50" height="30" as="geometry" />
        </mxCell>
        <mxCell id="NcCAokG08UXFf6dfI3CS-59" value="&lt;font style=&quot;font-size: 10px;&quot;&gt;(1,1)&lt;/font&gt;" style="text;html=1;align=center;verticalAlign=middle;resizable=0;points=[];autosize=1;strokeColor=none;fillColor=none;" vertex="1" parent="1">
          <mxGeometry x="712" y="549.05" width="40" height="30" as="geometry" />
        </mxCell>
        <mxCell id="NcCAokG08UXFf6dfI3CS-60" value="&lt;font style=&quot;font-size: 10px;&quot;&gt;(1,1)&lt;/font&gt;" style="text;html=1;align=center;verticalAlign=middle;resizable=0;points=[];autosize=1;strokeColor=none;fillColor=none;" vertex="1" parent="1">
          <mxGeometry x="660" y="571.05" width="40" height="30" as="geometry" />
        </mxCell>
        <mxCell id="NcCAokG08UXFf6dfI3CS-61" value="" style="group;rotation=90;" vertex="1" connectable="0" parent="1">
          <mxGeometry x="809" y="568.05" width="10" height="38" as="geometry" />
        </mxCell>
        <mxCell id="NcCAokG08UXFf6dfI3CS-62" style="edgeStyle=orthogonalEdgeStyle;rounded=0;orthogonalLoop=1;jettySize=auto;html=1;endArrow=none;endFill=0;" edge="1" parent="NcCAokG08UXFf6dfI3CS-61">
          <mxGeometry relative="1" as="geometry">
            <mxPoint x="-14" y="19" as="targetPoint" />
            <mxPoint x="14" y="19" as="sourcePoint" />
          </mxGeometry>
        </mxCell>
        <mxCell id="NcCAokG08UXFf6dfI3CS-63" value="" style="ellipse;whiteSpace=wrap;html=1;aspect=fixed;rotation=180;container=0;labelBackgroundColor=none;fillColor=#000000;" vertex="1" parent="NcCAokG08UXFf6dfI3CS-61">
          <mxGeometry x="14" y="14" width="10" height="10" as="geometry" />
        </mxCell>
        <mxCell id="NcCAokG08UXFf6dfI3CS-64" value="" style="group;rotation=90;" vertex="1" connectable="0" parent="1">
          <mxGeometry x="809" y="582.05" width="10" height="38" as="geometry" />
        </mxCell>
        <mxCell id="NcCAokG08UXFf6dfI3CS-65" style="edgeStyle=orthogonalEdgeStyle;rounded=0;orthogonalLoop=1;jettySize=auto;html=1;endArrow=none;endFill=0;" edge="1" parent="NcCAokG08UXFf6dfI3CS-64">
          <mxGeometry relative="1" as="geometry">
            <mxPoint x="-14" y="19" as="targetPoint" />
            <mxPoint x="14" y="19" as="sourcePoint" />
          </mxGeometry>
        </mxCell>
        <mxCell id="NcCAokG08UXFf6dfI3CS-66" value="" style="ellipse;whiteSpace=wrap;html=1;aspect=fixed;rotation=180;container=0;labelBackgroundColor=none;fillColor=#000000;" vertex="1" parent="NcCAokG08UXFf6dfI3CS-64">
          <mxGeometry x="14" y="14" width="10" height="10" as="geometry" />
        </mxCell>
        <mxCell id="NcCAokG08UXFf6dfI3CS-67" value="" style="group;rotation=90;" vertex="1" connectable="0" parent="1">
          <mxGeometry x="809" y="596.05" width="10" height="38" as="geometry" />
        </mxCell>
        <mxCell id="NcCAokG08UXFf6dfI3CS-68" style="edgeStyle=orthogonalEdgeStyle;rounded=0;orthogonalLoop=1;jettySize=auto;html=1;endArrow=none;endFill=0;" edge="1" parent="NcCAokG08UXFf6dfI3CS-67">
          <mxGeometry relative="1" as="geometry">
            <mxPoint x="-14" y="19" as="targetPoint" />
            <mxPoint x="14" y="19" as="sourcePoint" />
          </mxGeometry>
        </mxCell>
        <mxCell id="NcCAokG08UXFf6dfI3CS-69" value="" style="ellipse;whiteSpace=wrap;html=1;aspect=fixed;rotation=180;container=0;labelBackgroundColor=none;fillColor=#ffffff;" vertex="1" parent="NcCAokG08UXFf6dfI3CS-67">
          <mxGeometry x="14" y="14" width="10" height="10" as="geometry" />
        </mxCell>
        <mxCell id="NcCAokG08UXFf6dfI3CS-70" value="&lt;font style=&quot;font-size: 10px;&quot;&gt;fecha&lt;br&gt;&lt;/font&gt;" style="text;html=1;align=center;verticalAlign=middle;resizable=0;points=[];autosize=1;strokeColor=none;fillColor=none;" vertex="1" parent="1">
          <mxGeometry x="824" y="571.05" width="50" height="30" as="geometry" />
        </mxCell>
        <mxCell id="NcCAokG08UXFf6dfI3CS-71" value="&lt;font style=&quot;font-size: 10px;&quot;&gt;hora&lt;br&gt;&lt;/font&gt;" style="text;html=1;align=center;verticalAlign=middle;resizable=0;points=[];autosize=1;strokeColor=none;fillColor=none;" vertex="1" parent="1">
          <mxGeometry x="823" y="585.05" width="50" height="30" as="geometry" />
        </mxCell>
        <mxCell id="NcCAokG08UXFf6dfI3CS-72" value="&lt;font style=&quot;font-size: 10px;&quot;&gt;asistió(0,1)&lt;br&gt;&lt;/font&gt;" style="text;html=1;align=center;verticalAlign=middle;resizable=0;points=[];autosize=1;strokeColor=none;fillColor=none;" vertex="1" parent="1">
          <mxGeometry x="837" y="599.05" width="70" height="30" as="geometry" />
        </mxCell>
        <mxCell id="NcCAokG08UXFf6dfI3CS-73" value="" style="ellipse;whiteSpace=wrap;html=1;aspect=fixed;rotation=-180;strokeColor=#000000;fillColor=#000000;" vertex="1" parent="1">
          <mxGeometry x="805" y="603.05" width="10" height="10" as="geometry" />
        </mxCell>
        <mxCell id="NcCAokG08UXFf6dfI3CS-74" value="" style="curved=1;endArrow=none;html=1;rounded=0;entryX=0.567;entryY=0.733;entryDx=0;entryDy=0;entryPerimeter=0;endFill=0;" edge="1" parent="1" target="NcCAokG08UXFf6dfI3CS-73">
          <mxGeometry width="50" height="50" relative="1" as="geometry">
            <mxPoint x="750" y="464.05" as="sourcePoint" />
            <mxPoint x="835" y="546.05" as="targetPoint" />
            <Array as="points">
              <mxPoint x="800" y="496.05" />
              <mxPoint x="810" y="606.05" />
            </Array>
          </mxGeometry>
        </mxCell>
        <mxCell id="NcCAokG08UXFf6dfI3CS-75" value="" style="endArrow=none;html=1;rounded=0;entryX=1;entryY=0.5;entryDx=0;entryDy=0;exitX=0;exitY=0.5;exitDx=0;exitDy=0;endFill=0;" edge="1" parent="1" source="NcCAokG08UXFf6dfI3CS-77" target="NcCAokG08UXFf6dfI3CS-7">
          <mxGeometry width="50" height="50" relative="1" as="geometry">
            <mxPoint x="537" y="457.05" as="sourcePoint" />
            <mxPoint x="587" y="407.05" as="targetPoint" />
          </mxGeometry>
        </mxCell>
        <mxCell id="NcCAokG08UXFf6dfI3CS-76" value="" style="endArrow=none;html=1;rounded=0;entryX=1;entryY=0.5;entryDx=0;entryDy=0;exitX=0;exitY=0.5;exitDx=0;exitDy=0;endFill=0;" edge="1" parent="1" source="NcCAokG08UXFf6dfI3CS-5" target="NcCAokG08UXFf6dfI3CS-77">
          <mxGeometry width="50" height="50" relative="1" as="geometry">
            <mxPoint x="670" y="426.05" as="sourcePoint" />
            <mxPoint x="560" y="376.05" as="targetPoint" />
          </mxGeometry>
        </mxCell>
        <mxCell id="NcCAokG08UXFf6dfI3CS-77" value="&lt;font style=&quot;font-size: 9px;&quot;&gt;int_pac&lt;/font&gt;" style="rhombus;whiteSpace=wrap;html=1;" vertex="1" parent="1">
          <mxGeometry x="578" y="357.05" width="60" height="40" as="geometry" />
        </mxCell>
        <mxCell id="NcCAokG08UXFf6dfI3CS-78" value="&lt;font style=&quot;font-size: 10px;&quot;&gt;(1,1)&lt;/font&gt;" style="text;html=1;align=center;verticalAlign=middle;resizable=0;points=[];autosize=1;strokeColor=none;fillColor=none;" vertex="1" parent="1">
          <mxGeometry x="544" y="353.05" width="40" height="30" as="geometry" />
        </mxCell>
        <mxCell id="NcCAokG08UXFf6dfI3CS-79" value="&lt;font style=&quot;font-size: 10px;&quot;&gt;(0,N)&lt;/font&gt;" style="text;html=1;align=center;verticalAlign=middle;resizable=0;points=[];autosize=1;strokeColor=none;fillColor=none;rotation=56;" vertex="1" parent="1">
          <mxGeometry x="637" y="381.05" width="50" height="30" as="geometry" />
        </mxCell>
        <mxCell id="NcCAokG08UXFf6dfI3CS-80" style="edgeStyle=orthogonalEdgeStyle;rounded=0;orthogonalLoop=1;jettySize=auto;html=1;endArrow=none;endFill=0;" edge="1" parent="1">
          <mxGeometry relative="1" as="geometry">
            <mxPoint x="470" y="357.05" as="targetPoint" />
            <mxPoint x="470" y="343.05" as="sourcePoint" />
          </mxGeometry>
        </mxCell>
        <mxCell id="NcCAokG08UXFf6dfI3CS-81" value="" style="ellipse;whiteSpace=wrap;html=1;aspect=fixed;rotation=90;container=0;" vertex="1" parent="1">
          <mxGeometry x="465" y="333.05" width="10" height="10" as="geometry" />
        </mxCell>
        <mxCell id="NcCAokG08UXFf6dfI3CS-82" value="&lt;font style=&quot;font-size: 10px;&quot;&gt;nro_pieza&lt;/font&gt;" style="text;html=1;align=center;verticalAlign=middle;resizable=0;points=[];autosize=1;strokeColor=none;fillColor=none;" vertex="1" parent="1">
          <mxGeometry x="436" y="309.05" width="70" height="30" as="geometry" />
        </mxCell>
        <mxCell id="NcCAokG08UXFf6dfI3CS-83" value="" style="ellipse;whiteSpace=wrap;html=1;aspect=fixed;rotation=90;container=0;" vertex="1" parent="1">
          <mxGeometry x="419" y="333.05" width="10" height="10" as="geometry" />
        </mxCell>
        <mxCell id="NcCAokG08UXFf6dfI3CS-84" value="&lt;font style=&quot;font-size: 10px;&quot;&gt;causa&lt;/font&gt;" style="text;html=1;align=center;verticalAlign=middle;resizable=0;points=[];autosize=1;strokeColor=none;fillColor=none;" vertex="1" parent="1">
          <mxGeometry x="379" y="313.05" width="50" height="30" as="geometry" />
        </mxCell>
        <mxCell id="NcCAokG08UXFf6dfI3CS-85" value="" style="endArrow=none;startArrow=none;html=1;rounded=0;entryX=1;entryY=0;entryDx=0;entryDy=0;exitX=0.127;exitY=0.001;exitDx=0;exitDy=0;exitPerimeter=0;endFill=0;startFill=0;" edge="1" parent="1" source="NcCAokG08UXFf6dfI3CS-7" target="NcCAokG08UXFf6dfI3CS-83">
          <mxGeometry width="50" height="50" relative="1" as="geometry">
            <mxPoint x="470" y="376.05" as="sourcePoint" />
            <mxPoint x="520" y="326.05" as="targetPoint" />
          </mxGeometry>
        </mxCell>
        <mxCell id="NcCAokG08UXFf6dfI3CS-86" style="edgeStyle=orthogonalEdgeStyle;rounded=0;orthogonalLoop=1;jettySize=auto;html=1;endArrow=none;endFill=0;" edge="1" parent="1">
          <mxGeometry relative="1" as="geometry">
            <mxPoint x="526" y="357.05" as="targetPoint" />
            <mxPoint x="526" y="343.05" as="sourcePoint" />
          </mxGeometry>
        </mxCell>
        <mxCell id="NcCAokG08UXFf6dfI3CS-87" value="" style="ellipse;whiteSpace=wrap;html=1;aspect=fixed;rotation=90;container=0;fillColor=#000000;" vertex="1" parent="1">
          <mxGeometry x="521" y="333.05" width="10" height="10" as="geometry" />
        </mxCell>
        <mxCell id="NcCAokG08UXFf6dfI3CS-88" value="&lt;font style=&quot;font-size: 10px;&quot;&gt;fechaIngreso&lt;/font&gt;" style="text;html=1;align=center;verticalAlign=middle;resizable=0;points=[];autosize=1;strokeColor=none;fillColor=none;" vertex="1" parent="1">
          <mxGeometry x="496" y="309.05" width="90" height="30" as="geometry" />
        </mxCell>
        <mxCell id="NcCAokG08UXFf6dfI3CS-89" value="" style="ellipse;whiteSpace=wrap;html=1;aspect=fixed;rotation=90;container=0;fillColor=#000000;" vertex="1" parent="1">
          <mxGeometry x="507" y="343.05" width="10" height="10" as="geometry" />
        </mxCell>
        <mxCell id="NcCAokG08UXFf6dfI3CS-90" value="" style="curved=1;endArrow=none;html=1;rounded=0;endFill=0;" edge="1" parent="1">
          <mxGeometry width="50" height="50" relative="1" as="geometry">
            <mxPoint x="645" y="388.05" as="sourcePoint" />
            <mxPoint x="517" y="347.05" as="targetPoint" />
            <Array as="points">
              <mxPoint x="650" y="336.05" />
            </Array>
          </mxGeometry>
        </mxCell>
        <mxCell id="NcCAokG08UXFf6dfI3CS-105" value="" style="endArrow=none;html=1;rounded=0;entryX=0.5;entryY=1;entryDx=0;entryDy=0;exitX=0.5;exitY=0;exitDx=0;exitDy=0;" edge="1" parent="1" source="NcCAokG08UXFf6dfI3CS-8" target="NcCAokG08UXFf6dfI3CS-37">
          <mxGeometry width="50" height="50" relative="1" as="geometry">
            <mxPoint x="460" y="516.05" as="sourcePoint" />
            <mxPoint x="510" y="466.05" as="targetPoint" />
          </mxGeometry>
        </mxCell>
        <mxCell id="NcCAokG08UXFf6dfI3CS-106" value="" style="endArrow=none;html=1;rounded=0;entryX=0.5;entryY=1;entryDx=0;entryDy=0;" edge="1" parent="1">
          <mxGeometry width="50" height="50" relative="1" as="geometry">
            <mxPoint x="486" y="441.05" as="sourcePoint" />
            <mxPoint x="485.89" y="397.05" as="targetPoint" />
          </mxGeometry>
        </mxCell>
        <mxCell id="NcCAokG08UXFf6dfI3CS-109" value="Telefono" style="rounded=0;whiteSpace=wrap;html=1;" vertex="1" parent="1">
          <mxGeometry x="837" y="76" width="160" height="40" as="geometry" />
        </mxCell>
        <mxCell id="NcCAokG08UXFf6dfI3CS-110" value="" style="group" vertex="1" connectable="0" parent="1">
          <mxGeometry x="915" y="28" width="10" height="48" as="geometry" />
        </mxCell>
        <mxCell id="NcCAokG08UXFf6dfI3CS-111" style="edgeStyle=orthogonalEdgeStyle;rounded=0;orthogonalLoop=1;jettySize=auto;html=1;endArrow=none;endFill=0;" edge="1" parent="NcCAokG08UXFf6dfI3CS-110">
          <mxGeometry relative="1" as="geometry">
            <mxPoint x="5" y="48" as="targetPoint" />
            <mxPoint x="5" y="12.631578947368421" as="sourcePoint" />
          </mxGeometry>
        </mxCell>
        <mxCell id="NcCAokG08UXFf6dfI3CS-112" value="" style="ellipse;whiteSpace=wrap;html=1;aspect=fixed;rotation=90;container=0;fillColor=light-dark(#FFFFFF,#FFFFFF);" vertex="1" parent="NcCAokG08UXFf6dfI3CS-110">
          <mxGeometry y="10" width="10" height="10" as="geometry" />
        </mxCell>
        <mxCell id="NcCAokG08UXFf6dfI3CS-113" value="&lt;font style=&quot;font-size: 10px;&quot;&gt;numero&lt;/font&gt;" style="text;html=1;align=center;verticalAlign=middle;resizable=0;points=[];autosize=1;strokeColor=none;fillColor=none;rotation=-55;" vertex="1" parent="1">
          <mxGeometry x="896.9966915731111" y="-4.997552347509526" width="60" height="30" as="geometry" />
        </mxCell>
        <mxCell id="NcCAokG08UXFf6dfI3CS-116" value="per_tel" style="rhombus;whiteSpace=wrap;html=1;" vertex="1" parent="1">
          <mxGeometry x="668.5" y="76" width="60" height="40" as="geometry" />
        </mxCell>
        <mxCell id="NcCAokG08UXFf6dfI3CS-117" value="&lt;font style=&quot;font-size: 10px;&quot;&gt;(1,N)&lt;/font&gt;" style="text;html=1;align=center;verticalAlign=middle;resizable=0;points=[];autosize=1;strokeColor=none;fillColor=none;" vertex="1" parent="1">
          <mxGeometry x="570" y="174" width="50" height="30" as="geometry" />
        </mxCell>
        <mxCell id="NcCAokG08UXFf6dfI3CS-118" value="&lt;font style=&quot;font-size: 10px;&quot;&gt;(1,1)&lt;/font&gt;" style="text;html=1;align=center;verticalAlign=middle;resizable=0;points=[];autosize=1;strokeColor=none;fillColor=none;" vertex="1" parent="1">
          <mxGeometry x="788" y="66" width="50" height="30" as="geometry" />
        </mxCell>
        <mxCell id="NcCAokG08UXFf6dfI3CS-119" value="" style="curved=1;endArrow=none;html=1;rounded=0;startFill=0;" edge="1" parent="1">
          <mxGeometry width="50" height="50" relative="1" as="geometry">
            <mxPoint x="637" y="176" as="sourcePoint" />
            <mxPoint x="940" y="60" as="targetPoint" />
            <Array as="points">
              <mxPoint x="650" y="90" />
              <mxPoint x="690" y="60" />
            </Array>
          </mxGeometry>
        </mxCell>
        <mxCell id="NcCAokG08UXFf6dfI3CS-120" value="" style="ellipse;whiteSpace=wrap;html=1;aspect=fixed;rotation=90;container=0;fillColor=light-dark(#FFFFFF,#FFFFFF);" vertex="1" parent="1">
          <mxGeometry x="935" y="55" width="10" height="10" as="geometry" />
        </mxCell>
        <mxCell id="NcCAokG08UXFf6dfI3CS-121" value="Especialidad" style="rounded=0;whiteSpace=wrap;html=1;" vertex="1" parent="1">
          <mxGeometry x="119.5" y="80.49576022144498" width="160" height="40" as="geometry" />
        </mxCell>
        <mxCell id="NcCAokG08UXFf6dfI3CS-122" value="" style="group" vertex="1" connectable="0" parent="1">
          <mxGeometry x="197.5" y="32.49576022144498" width="10" height="48" as="geometry" />
        </mxCell>
        <mxCell id="NcCAokG08UXFf6dfI3CS-123" style="edgeStyle=orthogonalEdgeStyle;rounded=0;orthogonalLoop=1;jettySize=auto;html=1;endArrow=none;endFill=0;" edge="1" parent="NcCAokG08UXFf6dfI3CS-122">
          <mxGeometry relative="1" as="geometry">
            <mxPoint x="5" y="48" as="targetPoint" />
            <mxPoint x="5" y="12.631578947368421" as="sourcePoint" />
          </mxGeometry>
        </mxCell>
        <mxCell id="NcCAokG08UXFf6dfI3CS-124" value="" style="ellipse;whiteSpace=wrap;html=1;aspect=fixed;rotation=90;container=0;fillColor=light-dark(#FFFFFF,#FFFFFF);" vertex="1" parent="NcCAokG08UXFf6dfI3CS-122">
          <mxGeometry y="10" width="10" height="10" as="geometry" />
        </mxCell>
        <mxCell id="NcCAokG08UXFf6dfI3CS-125" value="&lt;font style=&quot;font-size: 10px;&quot;&gt;nombre&lt;/font&gt;" style="text;html=1;align=center;verticalAlign=middle;resizable=0;points=[];autosize=1;strokeColor=none;fillColor=none;rotation=-55;" vertex="1" parent="1">
          <mxGeometry x="179.4966915731111" y="-0.5017921260645579" width="60" height="30" as="geometry" />
        </mxCell>
        <mxCell id="NcCAokG08UXFf6dfI3CS-126" value="&lt;font style=&quot;font-size: 10px;&quot;&gt;(1,1)&lt;/font&gt;" style="text;html=1;align=center;verticalAlign=middle;resizable=0;points=[];autosize=1;strokeColor=none;fillColor=none;" vertex="1" parent="1">
          <mxGeometry x="202" y="122.99576022144498" width="50" height="30" as="geometry" />
        </mxCell>
        <mxCell id="NcCAokG08UXFf6dfI3CS-127" value="" style="ellipse;whiteSpace=wrap;html=1;aspect=fixed;rotation=90;container=0;fillColor=light-dark(#FFFFFF,#FFFFFF);" vertex="1" parent="1">
          <mxGeometry x="183" y="60.99576022144498" width="10" height="10" as="geometry" />
        </mxCell>
        <mxCell id="NcCAokG08UXFf6dfI3CS-129" style="edgeStyle=orthogonalEdgeStyle;rounded=0;orthogonalLoop=1;jettySize=auto;html=1;entryX=0.5;entryY=1;entryDx=0;entryDy=0;endArrow=none;startFill=0;" edge="1" parent="1" source="NcCAokG08UXFf6dfI3CS-128" target="NcCAokG08UXFf6dfI3CS-121">
          <mxGeometry relative="1" as="geometry">
            <Array as="points">
              <mxPoint x="200" y="160" />
              <mxPoint x="200" y="160" />
            </Array>
          </mxGeometry>
        </mxCell>
        <mxCell id="NcCAokG08UXFf6dfI3CS-128" value="pro_esp" style="rhombus;whiteSpace=wrap;html=1;" vertex="1" parent="1">
          <mxGeometry x="169.5" y="164" width="60" height="40" as="geometry" />
        </mxCell>
        <mxCell id="NcCAokG08UXFf6dfI3CS-130" style="edgeStyle=orthogonalEdgeStyle;rounded=0;orthogonalLoop=1;jettySize=auto;html=1;endArrow=none;startFill=0;exitX=0.5;exitY=1;exitDx=0;exitDy=0;" edge="1" parent="1" source="NcCAokG08UXFf6dfI3CS-128">
          <mxGeometry relative="1" as="geometry">
            <mxPoint x="207.42857142857156" y="300.002380952381" as="sourcePoint" />
            <mxPoint x="200" y="397" as="targetPoint" />
          </mxGeometry>
        </mxCell>
        <mxCell id="NcCAokG08UXFf6dfI3CS-131" value="&lt;font style=&quot;font-size: 10px;&quot;&gt;(0,N)&lt;/font&gt;" style="text;html=1;align=center;verticalAlign=middle;resizable=0;points=[];autosize=1;strokeColor=none;fillColor=none;" vertex="1" parent="1">
          <mxGeometry x="189.5" y="372" width="50" height="30" as="geometry" />
        </mxCell>
        <mxCell id="NcCAokG08UXFf6dfI3CS-132" value="" style="curved=1;endArrow=none;html=1;rounded=0;startFill=0;" edge="1" parent="1">
          <mxGeometry width="50" height="50" relative="1" as="geometry">
            <mxPoint x="199" y="230" as="sourcePoint" />
            <mxPoint x="193" y="66" as="targetPoint" />
            <Array as="points">
              <mxPoint x="311" y="110" />
              <mxPoint x="311" y="70" />
            </Array>
          </mxGeometry>
        </mxCell>
        <mxCell id="NcCAokG08UXFf6dfI3CS-133" value="" style="group" vertex="1" connectable="0" parent="1">
          <mxGeometry x="754.9966915731111" y="368.0524476524905" width="10" height="38" as="geometry" />
        </mxCell>
        <mxCell id="NcCAokG08UXFf6dfI3CS-134" style="edgeStyle=orthogonalEdgeStyle;rounded=0;orthogonalLoop=1;jettySize=auto;html=1;endArrow=none;endFill=0;" edge="1" parent="NcCAokG08UXFf6dfI3CS-133">
          <mxGeometry relative="1" as="geometry">
            <mxPoint x="5" y="38" as="targetPoint" />
            <mxPoint x="5" y="10" as="sourcePoint" />
          </mxGeometry>
        </mxCell>
        <mxCell id="NcCAokG08UXFf6dfI3CS-135" value="" style="ellipse;whiteSpace=wrap;html=1;aspect=fixed;rotation=90;container=0;" vertex="1" parent="NcCAokG08UXFf6dfI3CS-133">
          <mxGeometry width="10" height="10" as="geometry" />
        </mxCell>
        <mxCell id="NcCAokG08UXFf6dfI3CS-136" value="&lt;font style=&quot;font-size: 10px;&quot;&gt;direccion&lt;/font&gt;" style="text;html=1;align=center;verticalAlign=middle;resizable=0;points=[];autosize=1;strokeColor=none;fillColor=none;rotation=-55;" vertex="1" parent="1">
          <mxGeometry x="730.9966915731111" y="324.0524476524905" width="80" height="30" as="geometry" />
        </mxCell>
        <mxCell id="NcCAokG08UXFf6dfI3CS-141" style="edgeStyle=orthogonalEdgeStyle;rounded=0;orthogonalLoop=1;jettySize=auto;html=1;entryX=0.25;entryY=1;entryDx=0;entryDy=0;endArrow=none;startFill=0;" edge="1" parent="1" source="NcCAokG08UXFf6dfI3CS-137" target="NcCAokG08UXFf6dfI3CS-3">
          <mxGeometry relative="1" as="geometry" />
        </mxCell>
        <mxCell id="NcCAokG08UXFf6dfI3CS-137" value="es_un1" style="rhombus;whiteSpace=wrap;html=1;" vertex="1" parent="1">
          <mxGeometry x="210" y="250" width="60" height="40" as="geometry" />
        </mxCell>
        <mxCell id="NcCAokG08UXFf6dfI3CS-142" style="edgeStyle=orthogonalEdgeStyle;rounded=0;orthogonalLoop=1;jettySize=auto;html=1;entryX=0.75;entryY=1;entryDx=0;entryDy=0;endArrow=none;startFill=0;" edge="1" parent="1" source="NcCAokG08UXFf6dfI3CS-138" target="NcCAokG08UXFf6dfI3CS-3">
          <mxGeometry relative="1" as="geometry" />
        </mxCell>
        <mxCell id="NcCAokG08UXFf6dfI3CS-138" value="es_un2" style="rhombus;whiteSpace=wrap;html=1;" vertex="1" parent="1">
          <mxGeometry x="677" y="250" width="60" height="40" as="geometry" />
        </mxCell>
        <mxCell id="NcCAokG08UXFf6dfI3CS-139" value="" style="endArrow=none;html=1;rounded=0;exitX=0.5;exitY=1;exitDx=0;exitDy=0;" edge="1" parent="1">
          <mxGeometry width="50" height="50" relative="1" as="geometry">
            <mxPoint x="240" y="289" as="sourcePoint" />
            <mxPoint x="240" y="397" as="targetPoint" />
          </mxGeometry>
        </mxCell>
        <mxCell id="NcCAokG08UXFf6dfI3CS-140" value="" style="endArrow=none;html=1;rounded=0;" edge="1" parent="1">
          <mxGeometry width="50" height="50" relative="1" as="geometry">
            <mxPoint x="707" y="289" as="sourcePoint" />
            <mxPoint x="706.75" y="406.05" as="targetPoint" />
          </mxGeometry>
        </mxCell>
        <mxCell id="NcCAokG08UXFf6dfI3CS-143" value="&lt;font style=&quot;font-size: 10px;&quot;&gt;(1,1)&lt;/font&gt;" style="text;html=1;align=center;verticalAlign=middle;resizable=0;points=[];autosize=1;strokeColor=none;fillColor=none;" vertex="1" parent="1">
          <mxGeometry x="229.5" y="343.05" width="50" height="30" as="geometry" />
        </mxCell>
        <mxCell id="NcCAokG08UXFf6dfI3CS-144" value="&lt;font style=&quot;font-size: 10px;&quot;&gt;(1,1)&lt;/font&gt;" style="text;html=1;align=center;verticalAlign=middle;resizable=0;points=[];autosize=1;strokeColor=none;fillColor=none;" vertex="1" parent="1">
          <mxGeometry x="660" y="343.05" width="50" height="30" as="geometry" />
        </mxCell>
        <mxCell id="NcCAokG08UXFf6dfI3CS-145" value="&lt;font style=&quot;font-size: 10px;&quot;&gt;(0,1)&lt;/font&gt;" style="text;html=1;align=center;verticalAlign=middle;resizable=0;points=[];autosize=1;strokeColor=none;fillColor=none;" vertex="1" parent="1">
          <mxGeometry x="520" y="186" width="50" height="30" as="geometry" />
        </mxCell>
        <mxCell id="NcCAokG08UXFf6dfI3CS-146" value="&lt;font style=&quot;font-size: 10px;&quot;&gt;(0,1)&lt;/font&gt;" style="text;html=1;align=center;verticalAlign=middle;resizable=0;points=[];autosize=1;strokeColor=none;fillColor=none;" vertex="1" parent="1">
          <mxGeometry x="389" y="186" width="50" height="30" as="geometry" />
        </mxCell>
        <mxCell id="NcCAokG08UXFf6dfI3CS-147" value="" style="curved=1;endArrow=none;html=1;rounded=0;startFill=0;" edge="1" parent="1">
          <mxGeometry width="50" height="50" relative="1" as="geometry">
            <mxPoint x="310" y="270" as="sourcePoint" />
            <mxPoint x="158" y="387" as="targetPoint" />
            <Array as="points">
              <mxPoint x="260" y="240" />
              <mxPoint x="130" y="240" />
              <mxPoint x="120" y="390" />
            </Array>
          </mxGeometry>
        </mxCell>
        <mxCell id="NcCAokG08UXFf6dfI3CS-148" value="" style="ellipse;whiteSpace=wrap;html=1;aspect=fixed;rotation=90;container=0;labelBackgroundColor=none;fillColor=#000000;" vertex="1" parent="1">
          <mxGeometry x="156" y="382" width="10" height="10" as="geometry" />
        </mxCell>
        <mxCell id="NcCAokG08UXFf6dfI3CS-149" value="" style="curved=1;endArrow=none;html=1;rounded=0;startFill=0;" edge="1" parent="1">
          <mxGeometry width="50" height="50" relative="1" as="geometry">
            <mxPoint x="618.5" y="270" as="sourcePoint" />
            <mxPoint x="730" y="340" as="targetPoint" />
            <Array as="points">
              <mxPoint x="630" y="320" />
              <mxPoint x="670" y="340" />
            </Array>
          </mxGeometry>
        </mxCell>
        <mxCell id="NcCAokG08UXFf6dfI3CS-150" value="" style="ellipse;whiteSpace=wrap;html=1;aspect=fixed;rotation=90;container=0;fillColor=#000000;" vertex="1" parent="1">
          <mxGeometry x="726" y="335" width="10" height="10" as="geometry" />
        </mxCell>
      </root>
    </mxGraphModel>
  </diagram>
</mxfile>
